<svg width="124" height="90" viewBox="0 0 124 90" fill="none" xmlns="http://www.w3.org/2000/svg">
  <defs>
    <linearGradient id="envBody" x1="62" y1="8" x2="62" y2="82" gradientUnits="userSpaceOnUse">
      <stop stop-color="#FFFDFE"/>
      <stop offset="0.58" stop-color="#F5EEFB"/>
      <stop offset="1" stop-color="#EADCF7"/>
    </linearGradient>
    <linearGradient id="envFlap" x1="62" y1="8" x2="62" y2="50" gradientUnits="userSpaceOnUse">
      <stop stop-color="#FFFFFF"/>
      <stop offset="1" stop-color="#ECDDFA"/>
    </linearGradient>
    <linearGradient id="envFold" x1="62" y1="50" x2="62" y2="82" gradientUnits="userSpaceOnUse">
      <stop stop-color="#F2E9F9"/>
      <stop offset="1" stop-color="#DEC9F0"/>
    </linearGradient>
    <filter id="glow" x="0" y="2" width="124" height="88" filterUnits="userSpaceOnUse" color-interpolation-filters="sRGB">
      <feGaussianBlur stdDeviation="3"/>
    </filter>
  </defs>

  <rect x="8" y="10" width="108" height="72" rx="12" fill="url(#envBody)" stroke="#F6F0FB" stroke-width="1.4"/>
  <path d="M8 82L38 50L62 66L86 50L116 82Z" fill="url(#envFold)"/>
  <path d="M8 82L38 50" stroke="#D8C2EC" stroke-width="1.6" stroke-linecap="round"/>
  <path d="M116 82L86 50" stroke="#D8C2EC" stroke-width="1.6" stroke-linecap="round"/>
  <path d="M8 82L62 48L116 82" stroke="#D7C1EB" stroke-width="1.8" stroke-linejoin="round"/>
  <path d="M8 10L62 50L116 10" fill="url(#envFlap)" stroke="#D9C4ED" stroke-width="1.8" stroke-linejoin="round"/>
  <path d="M38 50H62" stroke="#CDB6E6" stroke-width="1.5" stroke-linecap="round"/>
  <path d="M62 50H86" stroke="#CDB6E6" stroke-width="1.5" stroke-linecap="round"/>
  <path d="M62 50L38 50" stroke="#C8AFDF" stroke-width="1.1" stroke-linecap="round"/>
  <path d="M62 50L86 50" stroke="#C8AFDF" stroke-width="1.1" stroke-linecap="round"/>
  <path d="M16 18H108" stroke="white" stroke-opacity="0.14" stroke-width="1.2" stroke-linecap="round"/>
  <path d="M62 46L8 10" stroke="#E8DCF5" stroke-width="0.9" stroke-linecap="round" opacity="0.75"/>
  <path d="M62 46L116 10" stroke="#E8DCF5" stroke-width="0.9" stroke-linecap="round" opacity="0.75"/>
  <g filter="url(#glow)">
    <rect x="18" y="20" width="88" height="52" rx="10" fill="white" fill-opacity="0.12"/>
  </g>
</svg>
